<svg width="149" height="40" viewBox="0 0 149 40" fill="none" xmlns="http://www.w3.org/2000/svg">
<path d="M20.0032 3.16965e-05C17.0551 -0.00523081 14.1429 0.644862 11.477 1.90327H28.5293C25.8634 0.644862 22.9511 -0.00523081 20.0032 3.16965e-05ZM13.6075 3.81048H8.25931C7.46165 4.38793 6.70823 5.0241 6.00532 5.71372H10.9036C11.7341 4.98426 12.6406 4.34617 13.6075 3.81048ZM23.85 9.52415H37.0434C36.639 8.86213 36.1949 8.2252 35.7133 7.61692H23.85V9.52415ZM9.09161 7.61692H4.29293C3.81278 8.22618 3.36865 8.86312 2.96284 9.52415H7.7894C8.17447 8.85633 8.6098 8.21877 9.09161 7.61692ZM23.85 5.71372H34.001C33.298 5.0241 32.5446 4.38793 31.7469 3.81048H23.85V5.71372ZM40.0063 20C40.0063 19.6814 40.0063 19.3628 39.9823 19.0483H33.081C32.8134 18.3918 32.5007 17.7545 32.1451 17.1411H39.8032C39.7115 16.4961 39.5881 15.863 39.4367 15.2379H30.8389C30.2857 14.5507 29.6741 13.9127 29.0111 13.3307H38.8673C38.6341 12.6831 38.3684 12.0479 38.0709 11.4274H16.1403V20.9516H23.85V30.4757H2.96284C3.36958 31.1363 3.81366 31.7729 4.29293 32.383H16.1283V34.2861H6.00532C6.70909 34.9748 7.46244 35.611 8.25931 36.1894H16.1283V38.0926H11.477C14.1437 39.3487 17.0552 40 20.0032 40C22.951 40 25.8624 39.3487 28.5293 38.0926H26.3748C27.3359 37.5575 28.236 36.9193 29.0589 36.1894H31.7469C32.5438 35.611 33.2971 34.9748 34.001 34.2861H30.8708C31.3491 33.684 31.783 33.0479 32.1691 32.383H35.7133C36.1939 31.7739 36.6381 31.1371 37.0434 30.4757H33.097C33.3464 29.8555 33.5552 29.2198 33.7221 28.5725H38.0788C38.377 27.9508 38.6429 27.3143 38.8753 26.6652H34.0965C34.1732 26.0404 34.2119 25.4115 34.212 24.782V24.7779H39.4527C39.604 24.1528 39.7274 23.5197 39.8191 22.8708H34.0766C33.9965 22.2293 33.8756 21.5935 33.7142 20.9675H39.9744C39.9983 20.6371 40.0063 20.3185 40.0063 20ZM9.09161 26.6652H1.12699C1.35942 27.3143 1.62526 27.9508 1.92345 28.5725H10.9036C10.2448 27.9911 9.6385 27.3529 9.09161 26.6652ZM6.85754 22.8548H0.203098C0.292986 23.5019 0.416607 24.1438 0.573453 24.7779H7.7894C7.43291 24.1601 7.12149 23.5175 6.85754 22.8548ZM5.75046 17.1411C5.74998 16.4997 5.78854 15.8587 5.86594 15.222H0.56947C0.418142 15.8471 0.294691 16.4802 0.203098 17.1251L5.75046 17.1411ZM6.85754 11.4274H1.92743C1.62996 12.0479 1.36413 12.6831 1.13098 13.3307H6.22833C6.39538 12.6829 6.60559 12.0471 6.85754 11.4274ZM5.86594 19.0483H0.0238944C0.0238944 19.3628 0 19.6814 0 20C0 20.3185 5.46462e-07 20.6371 0.0238944 20.9516H6.22833C6.06698 20.3255 5.94594 19.6898 5.86594 19.0483Z" fill="#004A98"/>
<path d="M129.734 4.21821C129.974 4.27288 130.186 4.41381 130.331 4.61477C130.405 4.73619 130.455 4.87141 130.478 5.01259C130.502 5.15378 130.497 5.29816 130.464 5.4374C130.186 6.89735 129.79 8.33219 129.284 9.72783V23.1558C129.289 23.2954 129.266 23.4347 129.217 23.5653C129.167 23.6958 129.092 23.8148 128.995 23.915C128.811 24.1004 128.563 24.2063 128.303 24.2104C128.045 24.2138 127.796 24.1137 127.611 23.9319C127.423 23.7191 127.326 23.4404 127.339 23.1558V13.4908C126.856 14.2037 126.543 14.284 126.318 14.3345C126.195 14.3487 126.071 14.3381 125.953 14.3033C125.835 14.2686 125.725 14.2104 125.629 14.132C125.44 13.9612 125.318 13.728 125.283 13.4739C125.29 13.1856 125.39 12.9073 125.567 12.6809C127.123 10.424 128.148 7.83642 128.562 5.11679C128.579 4.97468 128.625 4.83765 128.696 4.71427C128.769 4.59088 128.865 4.48376 128.978 4.39962C129.201 4.25127 129.469 4.18705 129.734 4.21821ZM132.896 16.8742H143.741C143.938 16.8615 144.135 16.8896 144.32 16.9572C144.505 17.0247 144.675 17.1299 144.818 17.2664C144.945 17.3757 145.047 17.5122 145.116 17.6663C145.184 17.8202 145.218 17.9878 145.214 18.1566V22.3753C145.21 22.5745 145.165 22.7708 145.084 22.9521C145.002 23.1334 144.884 23.2959 144.739 23.43C144.611 23.5686 144.458 23.6802 144.288 23.7584C144.117 23.8366 143.933 23.8798 143.747 23.8856H132.9C132.725 23.887 132.553 23.8479 132.396 23.7711C132.24 23.6942 132.101 23.5818 131.995 23.4425C131.748 23.1446 131.62 22.7639 131.637 22.3753V18.1566C131.638 17.8181 131.771 17.4939 132.007 17.2539C132.245 17.02 132.565 16.8911 132.896 16.8953V16.8742ZM134.168 18.7642C133.881 18.7642 133.784 18.8316 133.718 18.8991C133.669 18.9568 133.631 19.0237 133.608 19.0961C133.583 19.1686 133.574 19.2449 133.581 19.321C133.581 19.342 133.581 21.3923 133.581 21.3923C133.574 21.4684 133.583 21.545 133.607 21.6173C133.63 21.6898 133.669 21.7569 133.718 21.8142C133.783 21.8724 133.858 21.9167 133.939 21.9443C134.021 21.9718 134.107 21.9821 134.193 21.9745H142.628C142.807 21.9881 142.984 21.9357 143.128 21.8269C143.221 21.7069 143.265 21.5565 143.254 21.405V19.3969C143.266 19.2467 143.225 19.097 143.137 18.975C143.072 18.9131 142.997 18.8655 142.913 18.835C142.83 18.8045 142.741 18.7918 142.653 18.7979L134.168 18.7642ZM132.804 13.7018C132.677 13.6989 132.55 13.7217 132.433 13.7688C132.315 13.8158 132.206 13.8863 132.116 13.976C131.954 14.1575 131.865 14.3938 131.866 14.6383C131.862 14.8884 131.951 15.1309 132.116 15.3174C132.207 15.4068 132.315 15.477 132.433 15.5241C132.55 15.5711 132.677 15.5941 132.804 15.5918H144.042C144.167 15.5935 144.293 15.5702 144.409 15.523C144.526 15.4761 144.632 15.4062 144.722 15.3174C144.879 15.1257 144.964 14.8847 144.964 14.6362C144.964 14.3876 144.879 14.1468 144.722 13.9549C144.632 13.8685 144.526 13.8016 144.411 13.7581C144.294 13.7146 144.17 13.6954 144.047 13.7018H132.804ZM132.804 10.7233C132.676 10.7147 132.549 10.7347 132.43 10.7821C132.311 10.8296 132.204 10.9032 132.116 10.9975C131.955 11.1831 131.866 11.4215 131.866 11.6683C131.866 11.9152 131.955 12.1537 132.116 12.3391C132.205 12.4311 132.312 12.5029 132.431 12.5495C132.55 12.5961 132.677 12.6163 132.804 12.6091H144.042C144.17 12.6098 144.295 12.5839 144.413 12.5331C144.53 12.4823 144.634 12.4077 144.722 12.3139C144.878 12.1349 144.964 11.9047 144.964 11.6662C144.964 11.4278 144.878 11.1975 144.722 11.0186C144.634 10.9269 144.53 10.8536 144.413 10.8029C144.298 10.7521 144.172 10.7252 144.047 10.7233H132.804ZM131.432 7.6986C131.303 7.68863 131.175 7.70812 131.054 7.7556C130.934 7.80308 130.827 7.87733 130.74 7.97281C130.575 8.15694 130.486 8.3962 130.489 8.64357C130.487 8.89068 130.577 9.12955 130.74 9.31436C130.828 9.40768 130.937 9.48058 131.056 9.52783C131.176 9.57521 131.304 9.59589 131.432 9.58856H145.419C145.544 9.5921 145.669 9.56972 145.785 9.52247C145.901 9.47535 146.006 9.40441 146.094 9.31436C146.252 9.12798 146.339 8.89081 146.339 8.64566C146.339 8.40052 146.252 8.16348 146.094 7.97704C146.008 7.887 145.904 7.81585 145.789 7.76796C145.675 7.72007 145.551 7.69647 145.426 7.6986H131.432ZM132.804 4.72024C132.677 4.71429 132.55 4.73483 132.433 4.78056C132.314 4.82629 132.206 4.89622 132.116 4.98601C132.029 5.07385 131.962 5.17957 131.919 5.29601C131.875 5.41246 131.857 5.53692 131.866 5.66099C131.859 5.7849 131.877 5.90891 131.92 6.02511C131.964 6.14133 132.03 6.24719 132.116 6.33598C132.207 6.42472 132.315 6.49426 132.433 6.5406C132.552 6.58694 132.677 6.60916 132.804 6.60597H144.042C144.167 6.61073 144.293 6.58964 144.409 6.54393C144.526 6.49824 144.633 6.42891 144.722 6.34019C144.808 6.25033 144.875 6.14284 144.917 6.02497C144.958 5.90709 144.975 5.78155 144.964 5.65677C144.972 5.53268 144.955 5.40813 144.911 5.29166C144.869 5.17517 144.801 5.06948 144.713 4.98178C144.628 4.89269 144.523 4.82327 144.408 4.77817C144.293 4.73306 144.17 4.71331 144.047 4.72024H132.804Z" fill="#231815"/>
<path d="M96.2904 6.55325C96.2898 6.77941 96.2075 6.99769 96.0587 7.16756C95.976 7.25456 95.8766 7.32373 95.7664 7.37084C95.6562 7.41794 95.5375 7.44199 95.4176 7.4415H91.0255V7.50791C91.0326 7.64547 91.0117 7.78304 90.9641 7.91222C90.9164 8.04139 90.843 8.15946 90.7483 8.25919C90.6585 8.35158 90.5511 8.42498 90.4324 8.47482C90.3138 8.52478 90.1863 8.55028 90.0577 8.54977C89.9272 8.55157 89.7977 8.52633 89.6775 8.47559C89.5573 8.42498 89.4487 8.34978 89.3587 8.25503C89.2672 8.1547 89.1969 8.03674 89.1521 7.90831C89.1073 7.77988 89.0889 7.64366 89.0982 7.50791V7.4415H83.5851V7.50791C83.5929 7.64581 83.5728 7.78386 83.5258 7.91371C83.479 8.04356 83.4062 8.16249 83.3121 8.26334C83.1281 8.44584 82.8802 8.54861 82.6214 8.54977C82.4914 8.55131 82.3624 8.52646 82.2423 8.47649C82.1222 8.42653 82.0134 8.35261 81.9225 8.25919C81.8301 8.15843 81.7589 8.0399 81.7135 7.91077C81.6679 7.78165 81.6491 7.64459 81.6578 7.50791V7.4415H77.2781C77.1586 7.44588 77.0397 7.42608 76.9282 7.3833C76.8165 7.34051 76.7148 7.2756 76.6287 7.19245C76.4698 7.01635 76.3827 6.78669 76.3846 6.54909C76.388 6.31697 76.4729 6.09351 76.6246 5.91819C76.8001 5.75298 77.0332 5.66356 77.2738 5.66915H81.6537V5.24578C81.6445 5.1097 81.6633 4.97317 81.7087 4.84465C81.7543 4.71613 81.8256 4.59836 81.9184 4.49865C82.0092 4.40557 82.1182 4.33214 82.2383 4.28289C82.3585 4.23363 82.4875 4.2096 82.6173 4.21225C82.7446 4.21167 82.8709 4.23631 82.9887 4.28474C83.1065 4.33317 83.2136 4.40445 83.3039 4.49451C83.3985 4.59424 83.4719 4.71231 83.5196 4.84148C83.5672 4.97066 83.5881 5.10823 83.581 5.24578V5.66085H89.0982V5.24578C89.0897 5.10976 89.1088 4.97343 89.1543 4.84502C89.1998 4.71661 89.2708 4.59879 89.3629 4.49865C89.5474 4.31414 89.7972 4.21053 90.0577 4.21053C90.3182 4.21053 90.568 4.31414 90.7525 4.49865C90.8465 4.59874 90.9191 4.71695 90.966 4.84611C91.0129 4.97527 91.0331 5.11267 91.0255 5.24993V5.66085H95.4219C95.5394 5.6594 95.656 5.68182 95.7648 5.72675C95.8735 5.77169 95.9721 5.83822 96.0546 5.92235C96.2093 6.09545 96.2935 6.3207 96.2904 6.55325ZM82.3857 14.4106V16.2036H85.3759V14.4106H82.3857ZM87.3115 10.7579V12.6382H90.3389V10.7579H87.3115ZM90.3389 14.6762V14.4106H87.3363V16.2036H94.8883C95.0038 16.1951 95.1198 16.211 95.2289 16.2503C95.3378 16.2897 95.4374 16.3515 95.521 16.432C95.6741 16.6164 95.7602 16.8477 95.7651 17.0877C95.7538 17.315 95.6631 17.5311 95.5087 17.6978C95.429 17.7864 95.3313 17.8569 95.2221 17.9042C95.1129 17.9514 94.9948 17.9745 94.8759 17.9718H87.3115V19.4411H95.4176C95.5318 19.4338 95.6463 19.4503 95.7538 19.4897C95.8613 19.5289 95.9595 19.5901 96.0423 19.6694C96.2025 19.8483 96.2909 20.0805 96.2904 20.3212C96.2855 20.5612 96.1994 20.7924 96.0464 20.9769C95.9672 21.0628 95.869 21.1289 95.76 21.1699C95.6508 21.211 95.5336 21.226 95.4176 21.2135H87.3115V23.1561C87.3189 23.2964 87.2978 23.4369 87.2494 23.5689C87.2011 23.7009 87.1265 23.8217 87.0303 23.924C86.9397 24.015 86.832 24.0873 86.7135 24.1365C86.5949 24.1855 86.4679 24.2106 86.3396 24.2104C86.2095 24.2127 86.0802 24.1881 85.9599 24.1381C85.8397 24.0882 85.731 24.0139 85.6407 23.9197C85.5475 23.8194 85.4755 23.7009 85.4293 23.5719C85.3831 23.4427 85.3636 23.3055 85.3718 23.1684V21.2177H77.2781C77.1595 21.2233 77.0411 21.2043 76.9302 21.1622C76.8192 21.1201 76.718 21.0557 76.6328 20.9728C76.4829 20.7913 76.3971 20.5651 76.3889 20.3294C76.3976 20.0976 76.4836 19.8755 76.6328 19.6985C76.717 19.6137 76.8178 19.5475 76.9289 19.5038C77.0399 19.4603 77.1589 19.4403 77.2781 19.4454H85.3759V17.976H77.8239C77.7025 17.9832 77.5809 17.9657 77.4663 17.9242C77.3518 17.8829 77.247 17.8185 77.1581 17.7352C77.0109 17.5549 76.9306 17.329 76.9306 17.0961C76.9338 16.8599 77.022 16.6329 77.1788 16.4568C77.3519 16.2899 77.584 16.1989 77.8239 16.2036H80.4584V14.4106H76.6908C76.5725 14.416 76.4544 14.3966 76.3441 14.3538C76.2337 14.3109 76.1334 14.2455 76.0497 14.1615C75.8878 13.9869 75.799 13.7566 75.8016 13.5181C75.8094 13.2862 75.8954 13.0638 76.0455 12.8872C76.1303 12.8022 76.2318 12.7362 76.3437 12.6932C76.4556 12.6503 76.5753 12.6315 76.6949 12.6382H80.4171V12.4306C80.409 12.294 80.4283 12.1572 80.4737 12.0282C80.5191 11.8991 80.59 11.7805 80.6818 11.6793C80.7737 11.5866 80.8834 11.5133 81.0042 11.4641C81.125 11.4149 81.2545 11.3907 81.3849 11.3929C81.5125 11.3923 81.6391 11.4173 81.7571 11.4664C81.875 11.5156 81.9819 11.588 82.0715 11.6793C82.1667 11.7787 82.2405 11.8967 82.2882 12.026C82.3358 12.1553 82.3565 12.2931 82.3485 12.4306V12.6382H85.3759V10.7579H77.8239C77.7059 10.7616 77.5883 10.7416 77.4782 10.6987C77.3681 10.6559 77.2677 10.5914 77.1829 10.5089C77.0303 10.3286 76.9429 10.1019 76.9347 9.86548C76.9474 9.63381 77.0345 9.41257 77.1829 9.2346C77.2683 9.1518 77.3694 9.08703 77.4803 9.04427C77.5912 9.00152 77.7093 8.98156 77.828 8.98555H94.8883C95.0029 8.97963 95.1176 8.99675 95.2257 9.0359C95.3336 9.07518 95.4326 9.13557 95.5169 9.21387C95.6775 9.39416 95.7659 9.62776 95.7651 9.86961C95.7542 10.096 95.6683 10.3122 95.521 10.484C95.4437 10.5753 95.3463 10.6477 95.2366 10.6952C95.1269 10.7426 95.0077 10.7641 94.8883 10.7579H92.2579V12.6382H95.9802C96.0959 12.6271 96.2125 12.6419 96.322 12.6813C96.4313 12.7209 96.5307 12.7841 96.613 12.8665C96.7775 13.0441 96.8653 13.2799 96.8569 13.5222C96.8576 13.6384 96.8352 13.7534 96.7915 13.8609C96.7477 13.9683 96.6833 14.0662 96.6018 14.1486C96.5205 14.2312 96.4236 14.2967 96.317 14.3417C96.2103 14.3866 96.0959 14.41 95.9802 14.4106H92.2579V14.6762C92.258 14.9336 92.1604 15.1815 91.985 15.3693C91.7994 15.5519 91.55 15.6542 91.2902 15.6542C91.0303 15.6542 90.7809 15.5519 90.5953 15.3693C90.4247 15.181 90.3315 14.9348 90.3347 14.6803L90.3389 14.6762Z" fill="#231815"/>
<path d="M59.7594 4.50257C59.5724 4.71309 59.4758 4.98906 59.4903 5.27062V6.76521H52.4099C52.1638 6.76128 51.9192 6.80621 51.6904 6.89741C51.4616 6.98861 51.253 7.12429 51.0767 7.29662C50.9036 7.46453 50.7662 7.66589 50.6731 7.88853C50.5798 8.11118 50.5326 8.35052 50.5342 8.59191V18.7925C50.5349 19.0357 50.586 19.2762 50.6844 19.4984C50.7828 19.7207 50.9263 19.9201 51.1056 20.0836C51.4555 20.4252 51.9217 20.6212 52.4099 20.6317H59.4903V23.0854C59.4761 23.3886 59.5784 23.6857 59.776 23.9156C59.982 24.1096 60.2552 24.2154 60.5379 24.2104C60.674 24.2123 60.8092 24.1872 60.9357 24.1367C61.0621 24.0861 61.1773 24.011 61.2748 23.9156C61.475 23.6859 61.5841 23.3904 61.5812 23.0854V20.6317H68.67C69.1712 20.6138 69.6479 20.4095 70.0074 20.0588C70.3355 19.6962 70.5235 19.228 70.5373 18.7385V8.65837C70.5411 8.17639 70.3689 7.70969 70.0528 7.34644C69.8798 7.15271 69.6659 7.00005 69.4267 6.89952C69.1875 6.79898 68.9291 6.7531 68.67 6.76521H61.5812V5.27062C61.5943 4.98606 61.4963 4.7076 61.308 4.49426C61.0914 4.31103 60.8171 4.21053 60.5338 4.21053C60.2504 4.21053 59.9761 4.31103 59.7594 4.49426V4.50257ZM52.7205 18.4313C52.6642 18.3781 52.6197 18.3137 52.5897 18.2422C52.5598 18.1707 52.5452 18.0937 52.5466 18.0162V9.42232C52.5482 9.25385 52.6134 9.09219 52.7287 8.9697C52.786 8.90749 52.8559 8.85815 52.9337 8.82531C53.0116 8.79233 53.0956 8.77649 53.1801 8.77881H59.4903V18.614H53.1925C53.0188 18.6162 52.8511 18.5506 52.7246 18.4313H52.7205ZM67.8626 8.78705C67.9513 8.78486 68.0397 8.80161 68.1218 8.83587C68.2038 8.87026 68.2778 8.92152 68.3387 8.98631C68.3979 9.04363 68.4444 9.1128 68.4751 9.18931C68.5058 9.26595 68.5199 9.34813 68.5167 9.43057V18.0078C68.5045 18.1629 68.4403 18.3092 68.3345 18.4231C68.2814 18.4792 68.217 18.5237 68.1457 18.5537C68.0745 18.5837 67.9977 18.5986 67.9205 18.5973H61.5812V8.78705H67.8626Z" fill="#231815"/>
<path d="M108.037 9.48867C108.129 9.48388 108.22 9.49852 108.306 9.53189C108.392 9.56527 108.471 9.61656 108.537 9.68262C108.6 9.75197 108.648 9.83376 108.68 9.92308C108.712 10.0124 108.727 10.1076 108.723 10.2028C108.727 10.3933 108.66 10.5781 108.537 10.7186C108.474 10.7918 108.397 10.8495 108.311 10.8876C108.225 10.9258 108.131 10.9433 108.037 10.9391H104.55C104.454 10.9441 104.357 10.927 104.268 10.8889C104.179 10.8508 104.099 10.7927 104.034 10.7186C103.971 10.65 103.923 10.5689 103.892 10.4802C103.86 10.3915 103.847 10.2972 103.852 10.2028C103.847 10.0117 103.912 9.82596 104.034 9.68262C104.103 9.61587 104.184 9.56431 104.273 9.53094C104.362 9.49756 104.456 9.4832 104.55 9.48867H108.037ZM109.239 11.693C109.33 11.6864 109.422 11.7002 109.507 11.7336C109.593 11.767 109.67 11.8191 109.735 11.8864C109.8 11.9535 109.85 12.0345 109.882 12.1236C109.914 12.2126 109.927 12.3078 109.921 12.4027C109.924 12.5943 109.857 12.7801 109.734 12.9229C109.673 12.9948 109.596 13.0516 109.51 13.0889C109.425 13.1263 109.332 13.1434 109.239 13.1389H105.748C105.652 13.1449 105.556 13.1286 105.466 13.0913C105.377 13.0538 105.297 12.9963 105.231 12.9229C105.168 12.8539 105.119 12.7723 105.087 12.6828C105.055 12.5934 105.041 12.4981 105.045 12.4027C105.043 12.2125 105.109 12.0284 105.231 11.8869C105.301 11.8202 105.382 11.7685 105.471 11.7352C105.559 11.7019 105.653 11.6875 105.748 11.693H109.239ZM117.463 9.48867C117.554 9.48416 117.644 9.49907 117.729 9.53244C117.815 9.56581 117.892 9.61683 117.958 9.68262C118.021 9.75197 118.069 9.83376 118.101 9.92308C118.133 10.0124 118.148 10.1076 118.144 10.2028C118.148 10.3933 118.081 10.5781 117.958 10.7186C117.896 10.7913 117.82 10.8489 117.734 10.8871C117.648 10.9252 117.556 10.943 117.463 10.9391H113.971C113.878 10.9422 113.785 10.9252 113.698 10.8893C113.611 10.8533 113.532 10.799 113.466 10.7301C113.4 10.661 113.349 10.5785 113.315 10.4878C113.281 10.3971 113.265 10.3002 113.268 10.2028C113.266 10.0112 113.332 9.82542 113.455 9.68262C113.524 9.61642 113.606 9.56527 113.694 9.53203C113.783 9.49866 113.877 9.48402 113.971 9.48867H117.463ZM118.66 11.693C118.754 11.6829 118.848 11.6943 118.936 11.7265C119.025 11.7586 119.105 11.8106 119.172 11.8787C119.239 11.9468 119.291 12.0295 119.324 12.1208C119.357 12.212 119.37 12.3098 119.363 12.4071C119.366 12.5987 119.299 12.7845 119.177 12.9273C119.115 12.9991 119.038 13.0556 118.952 13.0929C118.867 13.1302 118.774 13.1475 118.682 13.1434H115.19C115.094 13.149 114.998 13.1326 114.909 13.0952C114.819 13.0579 114.739 13.0006 114.674 12.9273C114.61 12.8583 114.561 12.7767 114.529 12.6872C114.497 12.5978 114.483 12.5024 114.487 12.4071C114.485 12.217 114.552 12.0329 114.674 11.8913C114.743 11.8247 114.824 11.7733 114.913 11.74C115.002 11.7067 115.096 11.6922 115.19 11.6974L118.66 11.693ZM104.656 16.0705C104.652 15.9317 104.695 15.7959 104.778 15.687C104.832 15.6417 104.893 15.6082 104.96 15.5885C105.026 15.5688 105.095 15.5634 105.164 15.5724H110.606V16.7892H104.656V16.0705ZM110.606 18.4204V19.6283H105.164C105.093 19.6343 105.022 19.6253 104.955 19.6017C104.888 19.5782 104.827 19.5407 104.774 19.4916C104.688 19.383 104.646 19.2441 104.656 19.1037V18.4248L110.606 18.4204ZM118.017 15.5724C118.095 15.5645 118.173 15.575 118.247 15.6033C118.32 15.6315 118.386 15.6768 118.44 15.7356C118.517 15.8499 118.553 15.9888 118.542 16.1279V16.7892H112.591V15.5769L118.017 15.5724ZM118.516 18.4248V19.0993C118.523 19.2428 118.476 19.3834 118.385 19.4916C118.276 19.5835 118.14 19.632 118 19.6283H112.591V18.4248H118.516ZM120.379 22.4939H113.438C113.181 22.5152 112.927 22.4332 112.727 22.2647C112.549 22.0795 112.574 21.7047 112.574 21.2418H119.071C119.415 21.2328 119.741 21.084 119.981 20.8274C120.238 20.5666 120.389 20.2133 120.404 19.84V15.1581C120.402 14.9996 120.37 14.8431 120.308 14.6984C120.246 14.5535 120.156 14.4235 120.044 14.316C119.768 14.0724 119.416 13.9423 119.054 13.9501H103.902C103.746 13.9435 103.59 13.9707 103.445 14.0298C103.299 14.089 103.167 14.1789 103.056 14.2939C102.947 14.4099 102.863 14.5482 102.808 14.7C102.753 14.8519 102.73 15.0138 102.738 15.1756V19.8488C102.725 20.2089 102.845 20.5607 103.073 20.8319C103.17 20.9601 103.291 21.0657 103.43 21.1417C103.568 21.2176 103.721 21.2623 103.877 21.2727H110.589V22.0045C110.593 22.3415 110.667 22.6736 110.806 22.9781C110.945 23.2826 111.145 23.552 111.394 23.768C111.803 24.0737 112.299 24.2288 112.803 24.2088H120.379C120.595 24.2088 120.803 24.1192 120.956 23.9596C121.109 23.8 121.195 23.5836 121.195 23.3579C121.195 23.1322 121.109 22.9159 120.956 22.7564C120.803 22.5968 120.595 22.5072 120.379 22.5072V22.4939ZM119.786 8.68633C119.905 8.69098 120.018 8.74118 120.103 8.82735C120.183 8.92474 120.226 9.04811 120.226 9.17559V12.2088C120.226 12.5068 120.335 12.7939 120.531 13.0111C120.713 13.181 120.951 13.2723 121.195 13.2667C121.438 13.2428 121.667 13.1412 121.851 12.9758C122.026 12.7615 122.122 12.4897 122.122 12.2088V8.60249C122.134 8.39048 122.102 8.17834 122.029 7.98015C121.956 7.78182 121.843 7.60181 121.699 7.45187C121.409 7.14819 121.015 6.97694 120.603 6.97575H112.562V5.92211H119.448C119.669 5.91417 119.879 5.81603 120.032 5.64878C120.172 5.48485 120.252 5.27361 120.256 5.05362C120.25 4.82487 120.171 4.60474 120.032 4.42761C119.872 4.27806 119.662 4.2004 119.448 4.21159H103.788C103.565 4.2067 103.349 4.29384 103.187 4.45405C103.111 4.53234 103.052 4.62586 103.012 4.72892C102.972 4.832 102.952 4.94247 102.954 5.05362C102.953 5.28544 103.036 5.50911 103.187 5.67963C103.349 5.83984 103.565 5.927 103.788 5.92211H110.661V6.97575H102.586C102.383 6.97546 102.182 7.01743 101.994 7.09919C101.807 7.18094 101.637 7.30084 101.494 7.45187C101.349 7.60148 101.237 7.78141 101.164 7.97974C101.091 8.17821 101.059 8.39048 101.071 8.60249V12.2088C101.072 12.4897 101.168 12.7615 101.342 12.9758C101.526 13.1412 101.756 13.2428 101.998 13.2667C102.242 13.2723 102.48 13.181 102.662 13.0111C102.857 12.7927 102.965 12.5064 102.967 12.2088V9.17559C102.967 9.04811 103.011 8.92474 103.09 8.82735C103.175 8.74118 103.288 8.69098 103.407 8.68633H110.67V12.3762C110.66 12.6685 110.756 12.9537 110.941 13.1741C111.128 13.342 111.367 13.4342 111.614 13.4343C111.859 13.4344 112.096 13.3403 112.278 13.1698C112.464 12.9513 112.565 12.6683 112.562 12.3762V8.68633H119.786Z" fill="#231815"/>
<path d="M59.1218 36.1282C58.1932 36.6837 57.134 36.9448 56.0698 36.8805C54.8809 36.8805 53.7407 36.3795 52.9 35.4875C52.0594 34.5956 51.5872 33.3859 51.5872 32.1245C51.5872 30.863 52.0594 29.6533 52.9 28.7614C53.7407 27.8695 54.8809 27.3684 56.0698 27.3684C57.8031 27.3684 58.6117 27.8084 58.9724 28.0548L58.5578 29.1547C57.8243 28.7639 57.0102 28.5748 56.19 28.6047C54.6474 28.6047 53.2375 30.0918 53.2375 32.1508C53.2375 34.21 54.6765 35.6707 56.2729 35.6707C57.0938 35.7109 57.9095 35.5131 58.6324 35.0987L59.1218 36.1282ZM63.8489 36.7045V32.7096C63.8489 32.1025 63.6126 31.6669 62.9284 31.6669C62.4066 31.7095 61.908 31.9129 61.4936 32.2521V36.7045H60.0962V27.9491L61.4936 27.5444V31.2929C61.7693 31.0285 62.0913 30.8244 62.4413 30.6923C62.7915 30.5601 63.1627 30.5025 63.5339 30.523C64.6575 30.523 65.2256 31.2798 65.2256 32.3797V36.7045H63.8489ZM89.8944 36.7045V32.7096C89.8944 32.1025 89.6622 31.6669 88.978 31.6669C88.4556 31.7122 87.9563 31.9152 87.5391 32.2521V36.7045H86.1499V27.9491L87.5391 27.5444V31.2929C88.1011 30.7656 88.8338 30.4897 89.5835 30.523C90.7113 30.523 91.2793 31.2798 91.2793 32.3797V36.7045H89.8944ZM76.9526 36.7045V32.7096C76.9526 32.1025 76.7245 31.6669 76.0568 31.6669C75.5285 31.7084 75.0229 31.9117 74.6014 32.2521V36.7045H73.2205V31.0465L74.5392 30.6637L74.5765 31.2929C75.138 30.7765 75.8614 30.5017 76.6042 30.523C76.8381 30.5027 77.0734 30.5369 77.2935 30.6233C77.5136 30.7097 77.7132 30.8461 77.8784 31.023C78.0436 31.1999 78.1701 31.413 78.2495 31.6474C78.3289 31.8818 78.3589 32.1317 78.3375 32.3797V36.7045H76.9526ZM81.6466 34.4123C81.2942 34.4123 80.668 34.5223 80.668 35.015C80.668 35.5078 81.261 35.609 81.6342 35.609H83.2597C84.5037 35.609 85.4077 36.3746 85.2708 37.7121C85.134 39.0497 83.6453 40 82.2893 40C80.8214 40 79.1793 39.6304 79.1793 38.284C79.1936 37.9376 79.2991 37.6022 79.4837 37.3161C79.6684 37.03 79.9249 36.8043 80.2243 36.665C79.9984 36.541 79.811 36.3506 79.6845 36.1165C79.558 35.8824 79.4978 35.6146 79.5111 35.3451C79.52 35.0138 79.6207 34.6929 79.8007 34.4221C79.9807 34.1514 80.2318 33.9428 80.5228 33.8227C80.3011 33.6846 80.1188 33.4851 79.9954 33.2457C79.8721 33.0063 79.8121 32.7359 79.822 32.4633C79.822 31.5525 80.5312 30.523 81.97 30.523C82.3491 30.5121 82.7276 30.5595 83.0938 30.6637H85.2915V31.4425H84.0476C84.3035 31.7141 84.4518 32.0793 84.4622 32.4633C84.4622 33.7524 83.3633 34.4123 82.2065 34.4123H81.6466ZM80.3528 38.1213C80.3777 38.8077 81.3688 39.0497 82.1733 39.0497C83.0689 39.0497 83.9357 38.4776 84.0103 37.8441C84.1138 37.1445 83.6453 36.8409 83.0772 36.8409H81.2319C80.9417 37.0301 80.3404 37.5185 80.3528 38.1213ZM81.0993 32.4765C81.0952 32.6198 81.1199 32.7625 81.1716 32.8952C81.2232 33.0277 81.3007 33.1471 81.399 33.2457C81.4975 33.3441 81.6143 33.4195 81.742 33.4666C81.8696 33.5138 82.0054 33.5317 82.1401 33.5191C82.2749 33.534 82.411 33.5176 82.5393 33.4713C82.6675 33.4249 82.7847 33.3496 82.8829 33.2503C82.9811 33.1512 83.0577 33.0307 83.1078 32.8972C83.1578 32.7636 83.18 32.62 83.1726 32.4765C83.178 32.3321 83.1549 32.1881 83.1047 32.0536C83.0545 31.9193 82.9782 31.7977 82.881 31.6965C82.7837 31.5954 82.6674 31.5169 82.5398 31.4664C82.4122 31.4159 82.2761 31.3942 82.1401 31.4029C82.0049 31.3994 81.8704 31.4246 81.7446 31.4769C81.6188 31.5292 81.504 31.6077 81.407 31.7076C81.3101 31.8076 81.233 31.9271 81.1801 32.0591C81.1272 32.1911 81.0998 32.333 81.0993 32.4765ZM94.8746 30.6637H96.1559L97.3999 34.6236L98.6854 30.6637H99.859L97.6446 36.8013H96.89L95.8656 33.7215L94.7419 36.8013H93.9913L91.9512 30.6637H93.2781L94.5594 34.7599L95.4344 32.3665L94.8746 30.6637ZM101.75 36.8233C100.663 36.8233 99.9875 36.1502 99.9875 35.1514C99.9875 34.1528 100.767 33.1981 102.202 33.1144L103.413 33.0661V32.5644C103.413 32.0233 103.234 31.491 102.355 31.491C101.805 31.4983 101.262 31.6351 100.767 31.8913L100.439 31.1082C101.163 30.7175 101.963 30.514 102.774 30.5141C104.08 30.5141 104.773 31.2446 104.773 32.3004V35.7498C104.794 36.0758 104.867 36.3956 104.988 36.6958H103.529C103.456 36.5276 103.419 36.3442 103.421 36.1589C102.95 36.5836 102.355 36.8243 101.737 36.8409L101.75 36.8233ZM103.408 33.9151L102.579 33.9855C101.829 34.0516 101.252 34.3376 101.252 34.9974C101.252 35.6574 101.712 35.8027 102.206 35.8027C102.641 35.7625 103.055 35.583 103.392 35.2879L103.408 33.9151ZM68.0868 30.6461V34.6412C68.0868 35.2438 68.2817 35.6883 68.937 35.6883C69.4494 35.6537 69.9377 35.4454 70.3303 35.0942V30.6637H71.7111V36.3218L70.3966 36.7045L70.3551 36.071C69.7907 36.5701 69.0787 36.8427 68.344 36.8409C67.2451 36.8409 66.6853 36.115 66.6853 34.9887V30.6637L68.0868 30.6461ZM106.494 27.5268H113.485V28.7059H110.736V36.6869H109.247V28.7235H106.485L106.494 27.5268ZM115.372 35.8203C115.909 35.8509 116.446 35.7421 116.935 35.5035L117.246 36.3131C116.538 36.6975 115.747 36.8737 114.953 36.8233C113.207 36.8233 112.096 35.6574 112.096 33.7435C112.096 31.9044 113.311 30.5274 114.849 30.5274C116.247 30.5274 117.474 31.5173 117.474 33.8403H113.568C113.56 35.0722 114.161 35.8379 115.364 35.8379L115.372 35.8203ZM114.812 31.4953C114.057 31.4953 113.688 32.1288 113.593 32.9121H115.99C115.932 32.0233 115.517 31.5129 114.804 31.5129L114.812 31.4953ZM118.619 27.9271L120.02 27.5268V36.6869H118.619V27.9271ZM124.495 35.8203C125.033 35.85 125.571 35.7414 126.062 35.5035L126.369 36.3131C125.663 36.6977 124.872 36.874 124.08 36.8233C122.334 36.8233 121.214 35.6574 121.214 33.7435C121.214 31.9044 122.438 30.5274 123.976 30.5274C125.37 30.5274 126.589 31.5173 126.589 33.8403H122.691C122.691 35.0722 123.275 35.8379 124.486 35.8379L124.495 35.8203ZM123.943 31.4953C123.188 31.4953 122.815 32.1288 122.724 32.9121H125.116C125.054 32.0233 124.64 31.5129 123.935 31.5129L123.943 31.4953ZM130.445 30.523C131.111 30.4932 131.773 30.621 132.386 30.8969L132.104 31.8165C131.641 31.6037 131.139 31.5045 130.636 31.5262C129.89 31.5262 128.923 32.2389 128.923 33.6863C128.893 34.21 129.054 34.7259 129.373 35.1267C129.692 35.5275 130.144 35.7822 130.636 35.8379C131.145 35.8509 131.652 35.7582 132.128 35.565L132.447 36.4449C131.821 36.7471 131.132 36.8787 130.445 36.8278C128.608 36.8278 127.426 35.5387 127.426 33.6732C127.427 33.2551 127.506 32.8414 127.658 32.456C127.811 32.0707 128.034 31.7212 128.315 31.4282C128.595 31.135 128.928 30.904 129.294 30.7486C129.659 30.5933 130.05 30.5166 130.445 30.523ZM139.012 33.6863C139.012 35.6178 137.647 36.8409 135.898 36.8409C134.148 36.8409 132.813 35.6178 132.813 33.6863C132.813 31.7549 134.165 30.523 135.898 30.523C137.631 30.523 139.02 31.7461 139.02 33.6863H139.012ZM134.297 33.6863C134.297 34.9315 134.924 35.8862 135.898 35.8862C136.793 35.8862 137.498 34.9535 137.498 33.6863C137.498 32.4193 136.793 31.4864 135.898 31.4864C134.861 31.4997 134.305 32.4193 134.305 33.6863H134.297ZM148.426 36.7045H147.032V32.7096C147.032 32.1025 146.812 31.6537 146.203 31.6537C145.756 31.705 145.334 31.9001 144.996 32.2125V36.7045H143.631V32.7096C143.631 32.1025 143.441 31.6537 142.802 31.6537C142.36 31.7145 141.944 31.9136 141.609 32.2256V36.7045H140.219V31.0378L141.529 30.6637L141.583 31.3061C142.063 30.8269 142.69 30.5487 143.349 30.523C143.644 30.4894 143.942 30.5487 144.205 30.6934C144.468 30.8382 144.686 31.0619 144.83 31.337C145.346 30.8109 146.034 30.5189 146.749 30.523C146.978 30.5046 147.209 30.5395 147.424 30.6252C147.638 30.711 147.833 30.8456 147.994 31.0195C148.154 31.1934 148.278 31.4025 148.354 31.6321C148.431 31.8617 148.459 32.1063 148.437 32.3489L148.426 36.7045Z" fill="#231815"/>
</svg>
